<?xml version="1.0" standalone="no"?><!DOCTYPE svg PUBLIC "-//W3C//DTD SVG 1.1//EN" "http://www.w3.org/Graphics/SVG/1.1/DTD/svg11.dtd"><svg t="1555335801457" class="icon" style="" viewBox="0 0 1024 1024" version="1.1" xmlns="http://www.w3.org/2000/svg" p-id="4408" xmlns:xlink="http://www.w3.org/1999/xlink" width="200" height="200"><defs><style type="text/css"></style></defs><path d="M599.5847609609482 74.07619648979755c-18.937245018390122-18.937245018390122-44.97595805139753-30.773024611239506-71.01467108440494-30.773024611239506-28.40586817485432 0-54.44458120786173 11.83577829831111-71.01467108440494 30.773024611239506L78.81050806802972 464.6568855122173c-30.773024611239506 33.14017975308642-26.038713033007408 56.81173634970864-23.67155789116049 63.91320436432592 4.734311578232098 11.83577829831111 16.57008987654321 23.67155659662222 42.60880290955061 23.67155659662222h54.44458120786173c11.83577829831111 0 23.67155659662222 9.468623156464195 23.67155659662222 23.67155789116049v300.6287729196247c0 52.07742477147655 35.50733489493334 108.88916241572346 97.05338411741235 108.88916241572346h99.42053925925924c14.202934734696296 0 23.67155659662222-9.468623156464195 23.67155659662222-23.67155789116049V599.5847609609482H654.0293421688099V961.7595818085138c0 14.202934734696296 9.468623156464195 23.67155659662222 23.67155659662222 23.67155789116049h99.42053925925924c59.178892786093826 0 97.05338411741235-56.81173634970864 97.05338411741235-108.88916241572346V575.9132043643259c0-14.202934734696296-9.468623156464195-23.67155659662222-23.67155789116049-23.67155789116049s-23.67155659662222 9.468623156464195-23.67155659662222 23.67155789116049v300.6287729196247c0 30.773024611239506-18.937245018390122 61.54604792794074-49.71026962962962 61.54604792794074H701.3724553620543V594.8504493827161c0-23.67155659662222-18.937245018390122-42.60880290955061-42.60880161501235-42.60880290955061H393.6422157223506c-23.67155659662222 0-42.60880290955061 18.937245018390122-42.60880290955061 42.60880290955061V938.0880252118914H275.28443015016296c-30.773024611239506 0-49.71026962962962-30.773024611239506-49.71026962962962-61.54604792794074V575.9132043643259c0-37.87449133131852-30.773024611239506-71.01467108440494-71.01467108440494-71.01467108440494h-49.71026962962962c2.3671551418469137-2.3671551418469137 4.734311578232098-4.734311578232098 7.101468014617283-9.468623156464195L488.3284434033778 104.84921980649881c9.468623156464195-9.468623156464195 23.67155659662222-14.202934734696296 37.87449133131852-14.202933440158022 14.202934734696296 0 28.40586817485432 4.734311578232098 37.874490036780244 14.202933440158022l376.3777568768 390.580690316958c9.468623156464195 9.468623156464195 23.67155659662222 9.468623156464195 33.14017975308642 0 9.468623156464195-9.468623156464195 9.468623156464195-23.67155659662222 0-33.14017975308642L599.5847609609482 74.07619648979755z" fill="" p-id="4409"></path></svg>